<?xml version="1.0" encoding="UTF-8" standalone="no"?>
<svg width="133px" height="135px" viewBox="0 0 133 135" version="1.1" xmlns="http://www.w3.org/2000/svg" xmlns:xlink="http://www.w3.org/1999/xlink" xmlns:sketch="http://www.bohemiancoding.com/sketch/ns">
    <!-- Generator: Sketch 3.3.3 (12072) - http://www.bohemiancoding.com/sketch -->
    <title>Cat</title>
    <desc>Created with Sketch.</desc>
    <defs></defs>
    <g id="Page-1" stroke="none" stroke-width="1" fill="none" fill-rule="evenodd" sketch:type="MSPage">
        <g id="Cat" sketch:type="MSArtboardGroup" stroke="#979797">
            <g id="Group" sketch:type="MSLayerGroup" transform="translate(10.000000, 23.000000)">
                <path d="M14.8083258,19.1702163 L14.8083258,72.3290117 L31.1551999,88.6758857 L86.0729511,88.6758857 L100.166437,74.5823999 L100.166437,21.7893489 L83.1880538,0.324114251 L67.9990914,19.0221148 L44.9104465,19.0221148 L29.413813,0.324114251 L14.8083258,19.1702163 Z" id="Path-28" sketch:type="MSShapeGroup"></path>
                <path d="M32.3862622,32.4559502 L44.0892285,32.4559502" id="Path-29" sketch:type="MSShapeGroup"></path>
                <path d="M68.9107715,32.4559502 L80.6137378,32.4559502" id="Path-29-Copy" sketch:type="MSShapeGroup"></path>
                <path d="M54.824707,41.3209368 L54.824707,58.409688" id="Path-31" sketch:type="MSShapeGroup"></path>
                <path d="M46.6220694,69.9094927 L54.8864746,58.4852471 L64.0273447,70.0910845" id="Path-32" sketch:type="MSShapeGroup"></path>
                <path d="M28.1404378,47.4486721 L0.5109493,43.5429602" id="Path-33" sketch:type="MSShapeGroup"></path>
                <path d="M27.9581018,57.3208651 L0.328613281,61.2265771" id="Path-33-Copy" sketch:type="MSShapeGroup"></path>
                <path d="M84.8595622,47.4486721 L112.489051,43.5429602" id="Path-33-Copy-3" sketch:type="MSShapeGroup"></path>
                <path d="M85.0418982,57.3208651 L112.671387,61.2265771" id="Path-33-Copy-2" sketch:type="MSShapeGroup"></path>
            </g>
        </g>
    </g>
</svg>